<svg width="30" height="30" viewBox="0 0 30 30" fill="none" xmlns="http://www.w3.org/2000/svg">
<path d="M22.2 22.8H7.8C6.78 22.8 6 22.02 6 21V7.8C6 6.78 6.66 6 7.5 6H8.4V7.2H7.5C7.38 7.2 7.2 7.44 7.2 7.8V21C7.2 21.36 7.44 21.6 7.8 21.6H22.2C22.56 21.6 22.8 21.36 22.8 21V7.8C22.8 7.44 22.62 7.2 22.5 7.2H21.6V6H22.5C23.34 6 24 6.78 24 7.8V21C24 22.02 23.22 22.8 22.2 22.8Z" fill="black"/>
<path d="M10.2001 8.39999C9.8401 8.39999 9.6001 8.15999 9.6001 7.79999V5.39999C9.6001 5.03999 9.8401 4.79999 10.2001 4.79999C10.5601 4.79999 10.8001 5.03999 10.8001 5.39999V7.79999C10.8001 8.15999 10.5601 8.39999 10.2001 8.39999Z" fill="black"/>
<path d="M19.8002 8.39999C19.4402 8.39999 19.2002 8.15999 19.2002 7.79999V5.39999C19.2002 5.03999 19.4402 4.79999 19.8002 4.79999C20.1602 4.79999 20.4002 5.03999 20.4002 5.39999V7.79999C20.4002 8.15999 20.1602 8.39999 19.8002 8.39999Z" fill="black"/>
<path d="M12 6H18V7.2H12V6Z" fill="black"/>
<path d="M7.2002 9.60001H22.8002V10.8H7.2002V9.60001Z" fill="black"/>
<path d="M20.3999 12H21.5999V13.2H20.3999V12Z" fill="black"/>
<path d="M18 12H19.2V13.2H18V12Z" fill="black"/>
<path d="M15.6001 12H16.8001V13.2H15.6001V12Z" fill="black"/>
<path d="M13.2002 12H14.4002V13.2H13.2002V12Z" fill="black"/>
<path d="M10.7998 12H11.9998V13.2H10.7998V12Z" fill="black"/>
<path d="M20.3999 14.4H21.5999V15.6H20.3999V14.4Z" fill="black"/>
<path d="M18 14.4H19.2V15.6H18V14.4Z" fill="black"/>
<path d="M15.6001 14.4H16.8001V15.6H15.6001V14.4Z" fill="black"/>
<path d="M13.2002 14.4H14.4002V15.6H13.2002V14.4Z" fill="black"/>
<path d="M10.7998 14.4H11.9998V15.6H10.7998V14.4Z" fill="black"/>
<path d="M8.3999 14.4H9.5999V15.6H8.3999V14.4Z" fill="black"/>
<path d="M20.3999 16.8H21.5999V18H20.3999V16.8Z" fill="black"/>
<path d="M18 16.8H19.2V18H18V16.8Z" fill="black"/>
<path d="M15.6001 16.8H16.8001V18H15.6001V16.8Z" fill="black"/>
<path d="M13.2002 16.8H14.4002V18H13.2002V16.8Z" fill="black"/>
<path d="M10.7998 16.8H11.9998V18H10.7998V16.8Z" fill="black"/>
<path d="M8.3999 16.8H9.5999V18H8.3999V16.8Z" fill="black"/>
<path d="M18 19.2H19.2V20.4H18V19.2Z" fill="black"/>
<path d="M15.6001 19.2H16.8001V20.4H15.6001V19.2Z" fill="black"/>
<path d="M13.2002 19.2H14.4002V20.4H13.2002V19.2Z" fill="black"/>
<path d="M10.7998 19.2H11.9998V20.4H10.7998V19.2Z" fill="black"/>
<path d="M8.3999 19.2H9.5999V20.4H8.3999V19.2Z" fill="black"/>
</svg>
