<?xml version="1.0" encoding="utf-8"?><svg xmlns="http://www.w3.org/2000/svg" xmlns:xlink="http://www.w3.org/1999/xlink"><symbol viewBox="0 0 22 13" id="arrow_down" xmlns="http://www.w3.org/2000/svg"><path fill-rule="evenodd" clip-rule="evenodd" d="M.405.888a.5.5 0 01.707.017l9.638 10.12L20.388.905a.5.5 0 01.724.69l-10 10.5a.5.5 0 01-.724 0l-10-10.5A.5.5 0 01.405.888z"/></symbol><symbol viewBox="0 0 12 21" id="arrow_left" xmlns="http://www.w3.org/2000/svg"><path fill-rule="evenodd" clip-rule="evenodd" d="M11.362.155a.5.5 0 01-.017.707L1.225 10.5l10.12 9.638a.5.5 0 01-.69.724l-10.5-10a.5.5 0 010-.724l10.5-10a.5.5 0 01.707.017z"/></symbol><symbol viewBox="0 0 18 24" id="basket" xmlns="http://www.w3.org/2000/svg"><path fill-rule="evenodd" clip-rule="evenodd" d="M13.5 2.182h3.375c.621 0 1.125.488 1.125 1.09H0c0-.602.504-1.09 1.125-1.09H4.5C4.5.977 5.507 0 6.75 0h4.5c1.243 0 2.25.977 2.25 2.182zM1.066 4.277h15.829l-.79 18.349S15.807 24 14.684 24H3.315c-1.123 0-1.42-1.375-1.42-1.375l-.83-18.348zm12.321 2.268h-1.125l-.562 15.75h1.125l.563-15.75zm-7.2 15.75l-.562-15.75H4.5l.562 15.75h1.126zm2.25-15.75v15.75h1.126V6.546H8.438z"/></symbol><symbol viewBox="0 0 24 18" id="burger" xmlns="http://www.w3.org/2000/svg"><path fill-rule="evenodd" clip-rule="evenodd" d="M0 0h24v1H0V0zm0 17h24v1H0v-1zm24-8H0v1h24V9z"/></symbol><symbol viewBox="0 0 30 30" id="calendar" xmlns="http://www.w3.org/2000/svg"><path d="M22.2 22.8H7.8C6.78 22.8 6 22.02 6 21V7.8C6 6.78 6.66 6 7.5 6h.9v1.2h-.9c-.12 0-.3.24-.3.6V21c0 .36.24.6.6.6h14.4c.36 0 .6-.24.6-.6V7.8c0-.36-.18-.6-.3-.6h-.9V6h.9c.84 0 1.5.78 1.5 1.8V21c0 1.02-.78 1.8-1.8 1.8z"/><path d="M10.2 8.4c-.36 0-.6-.24-.6-.6V5.4c0-.36.24-.6.6-.6s.6.24.6.6v2.4c0 .36-.24.6-.6.6zm9.6 0c-.36 0-.6-.24-.6-.6V5.4c0-.36.24-.6.6-.6s.6.24.6.6v2.4c0 .36-.24.6-.6.6zM12 6h6v1.2h-6V6zM7.2 9.6h15.6v1.2H7.2V9.6zM20.4 12h1.2v1.2h-1.2V12zM18 12h1.2v1.2H18V12zm-2.4 0h1.2v1.2h-1.2V12zm-2.4 0h1.2v1.2h-1.2V12zm-2.4 0H12v1.2h-1.2V12zm9.6 2.4h1.2v1.2h-1.2v-1.2zm-2.4 0h1.2v1.2H18v-1.2zm-2.4 0h1.2v1.2h-1.2v-1.2zm-2.4 0h1.2v1.2h-1.2v-1.2zm-2.4 0H12v1.2h-1.2v-1.2zm-2.4 0h1.2v1.2H8.4v-1.2zm12 2.4h1.2V18h-1.2v-1.2zm-2.4 0h1.2V18H18v-1.2zm-2.4 0h1.2V18h-1.2v-1.2zm-2.4 0h1.2V18h-1.2v-1.2zm-2.4 0H12V18h-1.2v-1.2zm-2.4 0h1.2V18H8.4v-1.2zm9.6 2.4h1.2v1.2H18v-1.2zm-2.4 0h1.2v1.2h-1.2v-1.2zm-2.4 0h1.2v1.2h-1.2v-1.2zm-2.4 0H12v1.2h-1.2v-1.2zm-2.4 0h1.2v1.2H8.4v-1.2z"/></symbol><symbol viewBox="0 0 24 24" id="checkbox-active" xmlns="http://www.w3.org/2000/svg"><path fill-rule="evenodd" clip-rule="evenodd" d="M12 24c6.627 0 12-5.373 12-12S18.627 0 12 0 0 5.373 0 12s5.373 12 12 12zm6.076-14.384l-7.848 8.103L5.87 13.22a1.276 1.276 0 01-.307-.495 1.119 1.119 0 01-.041-.587c.045-.227.162-.442.35-.636.186-.192.398-.317.628-.367.227-.048.432-.014.593.045.185.068.357.182.491.327l2.644 2.729 6.159-6.358c.15-.141.329-.25.525-.316.162-.053.367-.086.594-.04.232.047.45.168.64.365a1.2 1.2 0 01.342.655c.035.232-.012.437-.077.594a1.357 1.357 0 01-.335.48z"/></symbol><symbol viewBox="0 0 18 18" id="close" xmlns="http://www.w3.org/2000/svg"><path fill-rule="evenodd" clip-rule="evenodd" d="M.119 17.285a.428.428 0 000 .592.396.396 0 00.573 0L9 9.296l8.308 8.581a.396.396 0 00.573 0 .428.428 0 000-.591L9.573 8.704l7.735-7.99a.428.428 0 000-.591.396.396 0 00-.573 0L9 8.113 1.265.122a.396.396 0 00-.573 0 .428.428 0 000 .591l7.735 7.99-8.308 8.581z"/></symbol><symbol viewBox="0 0 22 21" id="pen" xmlns="http://www.w3.org/2000/svg"><path fill-rule="evenodd" clip-rule="evenodd" d="M19.414 1.414a2 2 0 00-2.828 0l-1.414 1.414 3.535 3.536 1.414-1.414a2 2 0 000-2.829l-.707-.707zM3.045 15.481l-.601 3.61 3.61-.6a2 2 0 001.085-.56L18 7.072l-3.536-3.535-10.86 10.86a2 2 0 00-.559 1.085z"/></symbol><symbol viewBox="0 0 30 30" id="plus" xmlns="http://www.w3.org/2000/svg"><path fill-rule="evenodd" clip-rule="evenodd" d="M15 5c.69 0 1.25.56 1.25 1.25v17.5a1.25 1.25 0 11-2.5 0V6.25c0-.69.56-1.25 1.25-1.25z"/><path fill-rule="evenodd" clip-rule="evenodd" d="M5 15c0-.69.56-1.25 1.25-1.25h17.5a1.25 1.25 0 110 2.5H6.25C5.56 16.25 5 15.69 5 15z"/></symbol></svg>